# Blender v2.78 (sub 0) OBJ File: 'Hex.blend'
# www.blender.org
mtllib Hex.mtl
o Cylinder
v 0.000000 0.000000 -0.500000
v 0.000000 1.000000 -0.500000
v 0.433000 0.000000 -0.250000
v 0.433000 1.000000 -0.250000
v 0.433000 0.000000 0.250000
v 0.433000 1.000000 0.250000
v -0.000000 0.000000 0.500000
v -0.000000 1.000000 0.500000
v -0.433000 0.000000 0.250000
v -0.433000 1.000000 0.250000
v -0.433000 0.000000 -0.250000
v -0.433000 1.000000 -0.250000
v 0.000000 1.000000 0.000000
v -0.000000 1.000000 0.000000
v 0.000000 1.000000 0.000000
v -0.000000 1.000000 0.000000
v 0.000000 1.000000 0.000000
v 0.000000 1.000000 0.000000
v -0.000000 0.000000 0.000000
v 0.000000 0.000000 0.000000
v 0.000000 0.000000 0.000000
v -0.000000 0.000000 0.000000
v 0.000000 0.000000 0.000000
v 0.000000 0.000000 0.000000
vn 0.5000 0.0000 -0.8660
vn 1.0000 0.0000 0.0000
vn 0.5000 0.0000 0.8660
vn -0.5000 0.0000 0.8660
vn 0.0000 1.0000 -0.0000
vn -1.0000 0.0000 0.0000
vn -0.5000 0.0000 -0.8660
vn 0.0000 -1.0000 0.0000
vn 0.0000 0.0000 1.0000
usemtl None
s off
f 1//1 2//1 4//1 3//1
f 3//2 4//2 6//2 5//2
f 5//3 6//3 8//3 7//3
f 7//4 8//4 10//4 9//4
f 10//5 8//5 16//5 17//5
f 9//6 10//6 12//6 11//6
f 11//7 12//7 2//7 1//7
f 9//8 11//8 24//8 23//8
f 13//9 14//9 18//9 17//9 16//9 15//9
f 6//5 4//5 13//5 15//5
f 12//5 10//5 17//5 18//5
f 4//5 2//5 14//5 13//5
f 8//5 6//5 15//5 16//5
f 2//5 12//5 18//5 14//5
f 19//9 20//9 21//9 22//9 23//9 24//9
f 1//8 3//8 20//8 19//8
f 5//8 7//8 22//8 21//8
f 11//8 1//8 19//8 24//8
f 7//8 9//8 23//8 22//8
f 3//8 5//8 21//8 20//8
